<svg width="1440" height="264" viewBox="0 0 1440 264" fill="none" xmlns="http://www.w3.org/2000/svg">
<path d="M1362.59 221.343L1362.15 210.772C1361.23 188.687 1348.16 168.926 1328.19 159.441C1290.17 141.381 1282.37 90.6613 1313.2 62.0059L1372.93 6.47791C1377.41 2.31806 1382.36 -1.2934 1387.69 -4.28004C1425.55 -25.4902 1473.44 -11.1866 1493.47 27.3083L1543.27 123.058C1556.76 148.995 1560.13 179.022 1552.72 207.303L1548.34 224.021C1537.63 264.856 1501.22 293.699 1459.02 294.774L1441.59 295.219C1399.5 296.291 1364.34 263.407 1362.59 221.343Z" stroke="#5517B7" stroke-opacity="0.16" stroke-width="2"/>
<path d="M517.144 206.653L517.798 211.948C519.165 223.011 526.546 232.406 536.97 236.355C556.818 243.873 562.821 269.044 548.502 284.711L520.754 315.069C518.676 317.343 516.333 319.361 513.777 321.081C495.621 333.293 470.962 328.068 459.32 309.542L430.361 263.46C422.517 250.977 419.594 236.024 422.159 221.506L423.676 212.924C427.381 191.961 444.498 175.972 465.664 173.701L474.409 172.763C495.518 170.498 514.54 185.584 517.144 206.653Z" fill="#5517B7" fill-opacity="0.12"/>
<path d="M959.077 142.654L953.77 142.105C942.683 140.958 931.872 146.045 925.688 155.319C913.913 172.978 888.036 173.187 875.978 155.721L852.61 121.876C850.86 119.34 849.418 116.605 848.315 113.728C840.482 93.2976 851.1 70.4369 871.765 63.2426L923.164 45.348C937.087 40.5006 952.316 41.0029 965.889 46.7571L973.913 50.1587C993.512 58.4674 1005.26 78.7318 1002.73 99.8686L1001.68 108.602C999.159 129.681 980.194 144.839 959.077 142.654Z" fill="#5517B7" fill-opacity="0.12"/>
<path d="M1335.7 176.589L1341.7 169.667C1354.23 155.204 1357.72 134.994 1350.76 117.168C1337.52 83.2269 1362.7 46.6318 1399.13 46.8677L1469.73 47.3248C1475.02 47.359 1480.29 48.0237 1485.42 49.3047C1521.86 58.402 1543.55 95.8386 1533.33 131.98L1507.89 221.876C1501 246.227 1485.31 267.148 1463.85 280.571L1451.17 288.506C1420.19 307.888 1380.13 304.459 1352.9 280.093L1341.65 270.026C1314.49 245.726 1311.84 204.135 1335.7 176.589Z" fill="#5517B7" fill-opacity="0.12"/>
<path d="M60.0259 33.8907L59.9818 43.0487C59.8898 62.1824 70.4005 79.7938 87.2845 88.796C119.433 105.937 124.148 150.107 96.3427 173.648L42.4612 219.266C38.4248 222.683 33.9952 225.607 29.2664 227.976C-4.31612 244.798 -45.1571 230.509 -60.9272 196.42L-100.153 111.629C-110.778 88.6601 -112.485 62.5615 -104.941 38.4048L-100.482 24.1251C-89.5889 -10.7554 -56.95 -34.2352 -20.416 -33.4723L-5.32124 -33.1571C31.1129 -32.3963 60.2012 -2.55095 60.0259 33.8907Z" fill="#5517B7" fill-opacity="0.12"/>
<path d="M143.101 76.0418L144.399 86.542C147.11 108.48 161.746 127.112 182.417 134.942C221.777 149.851 233.681 199.768 205.286 230.835L150.261 291.037C146.139 295.547 141.494 299.549 136.424 302.959C100.42 327.177 51.5196 316.816 28.432 280.077L-28.9947 188.694C-44.5507 163.94 -50.3478 134.286 -45.2594 105.496L-42.2515 88.4776C-34.9042 46.9069 -0.961328 15.1988 41.0128 10.6955L58.3553 8.83478C100.215 4.34373 137.938 34.26 143.101 76.0418Z" stroke="#5517B7" stroke-opacity="0.16" stroke-width="2"/>
<path d="M625.722 1.30082L636.285 0.703343C658.354 -0.54494 677.917 -13.9113 687.103 -34.0171C704.592 -72.3003 755.189 -80.864 784.302 -50.4683L843.439 11.2734C845.858 13.7984 847.967 16.6029 849.721 19.6273C867.456 50.1977 843.724 88.1437 808.475 85.5766L801.169 85.0445C774.444 83.0982 751.327 103.471 749.899 130.229L749.12 144.812C747.004 184.467 708.767 212.005 670.486 201.445L624.194 188.675C583.939 177.57 555.477 141.72 553.789 99.9955L553.036 81.3974C551.334 39.3321 583.689 3.67829 625.722 1.30082Z" stroke="#5517B7" stroke-opacity="0.16" stroke-width="2"/>
<path d="M879.285 248.303L889.848 247.706C911.918 246.458 931.481 233.091 940.666 212.985C958.155 174.702 1008.75 166.138 1037.87 196.534L1097 258.276C1099.42 260.801 1101.53 263.605 1103.28 266.63C1121.02 297.2 1097.29 335.146 1062.04 332.579L1054.73 332.047C1028.01 330.101 1004.89 350.473 1003.46 377.231L1002.68 391.815C1000.57 431.47 962.33 459.007 924.049 448.447L877.758 435.677C837.502 424.572 809.04 388.723 807.352 346.998L806.6 328.4C804.898 286.335 837.253 250.681 879.285 248.303Z" stroke="#5517B7" stroke-opacity="0.16" stroke-width="2"/>
</svg>
